<?xml version="1.0" encoding="UTF-8" standalone="no"?>
<!DOCTYPE svg PUBLIC "-//W3C//DTD SVG 1.1//EN"
 "http://www.w3.org/Graphics/SVG/1.1/DTD/svg11.dtd">
<!-- Generated by graphviz version 2.38.0 (20140413.2041)
 -->
<!-- Title: controllers_diagram Pages: 1 -->
<svg width="471pt" height="517pt"
 viewBox="0.00 0.00 471.09 517.00" xmlns="http://www.w3.org/2000/svg" xmlns:xlink="http://www.w3.org/1999/xlink">
<g id="graph0" class="graph" transform="scale(1 1) rotate(0) translate(89.2725 343.5)">
<title>controllers_diagram</title>
<polygon fill="none" stroke="none" points="-89.2725,173.5 -89.2725,-343.5 381.821,-343.5 381.821,173.5 -89.2725,173.5"/>
<!-- _diagram_info -->
<g id="node1" class="node"><title>_diagram_info</title>
<text text-anchor="start" x="76.3123" y="110.9" font-family="Times,serif" font-size="13.00">Controllers diagram</text>
<text text-anchor="start" x="76.3123" y="123.9" font-family="Times,serif" font-size="13.00">Date: Nov 23 2016 &#45; 13:48</text>
<text text-anchor="start" x="76.3123" y="136.9" font-family="Times,serif" font-size="13.00">Migration version: 20161027184650</text>
<text text-anchor="start" x="76.3123" y="149.9" font-family="Times,serif" font-size="13.00">Generated by RailRoady 1.5.2</text>
<text text-anchor="start" x="76.3123" y="162.9" font-family="Times,serif" font-size="13.00">http://railroady.prestonlee.com</text>
</g>
<!-- ApplicationController -->
<g id="node2" class="node"><title>ApplicationController</title>
<path fill="none" stroke="black" d="M250.179,67C250.179,67 365.821,67 365.821,67 371.821,67 377.821,61 377.821,55 377.821,55 377.821,-13 377.821,-13 377.821,-19 371.821,-25 365.821,-25 365.821,-25 250.179,-25 250.179,-25 244.179,-25 238.179,-19 238.179,-13 238.179,-13 238.179,55 238.179,55 238.179,61 244.179,67 250.179,67"/>
<text text-anchor="middle" x="308" y="-9.8" font-family="Times,serif" font-size="14.00">ApplicationController</text>
<polyline fill="none" stroke="black" points="238.179,-3 377.821,-3 "/>
<polyline fill="none" stroke="black" points="238.179,21 377.821,21 "/>
<polyline fill="none" stroke="black" points="238.179,45 377.821,45 "/>
<text text-anchor="start" x="246.179" y="60.2" font-family="Times,serif" font-size="14.00">_layout</text>
</g>
<!-- CartsController -->
<g id="node3" class="node"><title>CartsController</title>
<path fill="none" stroke="black" d="M-55.5483,118C-55.5483,118 23.5483,118 23.5483,118 29.5483,118 35.5483,112 35.5483,106 35.5483,106 35.5483,-86 35.5483,-86 35.5483,-92 29.5483,-98 23.5483,-98 23.5483,-98 -55.5483,-98 -55.5483,-98 -61.5483,-98 -67.5483,-92 -67.5483,-86 -67.5483,-86 -67.5483,106 -67.5483,106 -67.5483,112 -61.5483,118 -55.5483,118"/>
<text text-anchor="middle" x="-16" y="-82.8" font-family="Times,serif" font-size="14.00">CartsController</text>
<polyline fill="none" stroke="black" points="-67.5483,-76 35.5483,-76 "/>
<text text-anchor="start" x="-59.5483" y="-60.8" font-family="Times,serif" font-size="14.00">index</text>
<text text-anchor="start" x="-59.5483" y="-46.8" font-family="Times,serif" font-size="14.00">destroy</text>
<text text-anchor="start" x="-59.5483" y="-32.8" font-family="Times,serif" font-size="14.00">edit</text>
<text text-anchor="start" x="-59.5483" y="-18.8" font-family="Times,serif" font-size="14.00">create</text>
<text text-anchor="start" x="-59.5483" y="-4.8" font-family="Times,serif" font-size="14.00">new</text>
<text text-anchor="start" x="-59.5483" y="9.2" font-family="Times,serif" font-size="14.00">show</text>
<text text-anchor="start" x="-59.5483" y="23.2" font-family="Times,serif" font-size="14.00">update</text>
<polyline fill="none" stroke="black" points="-67.5483,30 35.5483,30 "/>
<polyline fill="none" stroke="black" points="-67.5483,54 35.5483,54 "/>
<text text-anchor="start" x="-59.5483" y="69.2" font-family="Times,serif" font-size="14.00">_layout</text>
<text text-anchor="start" x="-59.5483" y="83.2" font-family="Times,serif" font-size="14.00">cart_params</text>
<text text-anchor="start" x="-59.5483" y="97.2" font-family="Times,serif" font-size="14.00">invalid_cart</text>
<text text-anchor="start" x="-59.5483" y="111.2" font-family="Times,serif" font-size="14.00">set_cart</text>
</g>
<!-- LineItemsController -->
<g id="node4" class="node"><title>LineItemsController</title>
<path fill="none" stroke="black" d="M79.8481,67C79.8481,67 186.152,67 186.152,67 192.152,67 198.152,61 198.152,55 198.152,55 198.152,-123 198.152,-123 198.152,-129 192.152,-135 186.152,-135 186.152,-135 79.8481,-135 79.8481,-135 73.8481,-135 67.8481,-129 67.8481,-123 67.8481,-123 67.8481,55 67.8481,55 67.8481,61 73.8481,67 79.8481,67"/>
<text text-anchor="middle" x="133" y="-119.8" font-family="Times,serif" font-size="14.00">LineItemsController</text>
<polyline fill="none" stroke="black" points="67.8481,-113 198.152,-113 "/>
<text text-anchor="start" x="75.8481" y="-97.8" font-family="Times,serif" font-size="14.00">index</text>
<text text-anchor="start" x="75.8481" y="-83.8" font-family="Times,serif" font-size="14.00">destroy</text>
<text text-anchor="start" x="75.8481" y="-69.8" font-family="Times,serif" font-size="14.00">edit</text>
<text text-anchor="start" x="75.8481" y="-55.8" font-family="Times,serif" font-size="14.00">create</text>
<text text-anchor="start" x="75.8481" y="-41.8" font-family="Times,serif" font-size="14.00">new</text>
<text text-anchor="start" x="75.8481" y="-27.8" font-family="Times,serif" font-size="14.00">show</text>
<text text-anchor="start" x="75.8481" y="-13.8" font-family="Times,serif" font-size="14.00">update</text>
<polyline fill="none" stroke="black" points="67.8481,-7 198.152,-7 "/>
<polyline fill="none" stroke="black" points="67.8481,17 198.152,17 "/>
<text text-anchor="start" x="75.8481" y="32.2" font-family="Times,serif" font-size="14.00">_layout</text>
<text text-anchor="start" x="75.8481" y="46.2" font-family="Times,serif" font-size="14.00">line_item_params</text>
<text text-anchor="start" x="75.8481" y="60.2" font-family="Times,serif" font-size="14.00">set_line_item</text>
</g>
<!-- ProductsController -->
<g id="node5" class="node"><title>ProductsController</title>
<path fill="none" stroke="black" d="M-73.2725,-137C-73.2725,-137 25.2725,-137 25.2725,-137 31.2725,-137 37.2725,-143 37.2725,-149 37.2725,-149 37.2725,-327 37.2725,-327 37.2725,-333 31.2725,-339 25.2725,-339 25.2725,-339 -73.2725,-339 -73.2725,-339 -79.2725,-339 -85.2725,-333 -85.2725,-327 -85.2725,-327 -85.2725,-149 -85.2725,-149 -85.2725,-143 -79.2725,-137 -73.2725,-137"/>
<text text-anchor="middle" x="-24" y="-323.8" font-family="Times,serif" font-size="14.00">ProductsController</text>
<polyline fill="none" stroke="black" points="-85.2725,-317 37.2725,-317 "/>
<text text-anchor="start" x="-77.2725" y="-301.8" font-family="Times,serif" font-size="14.00">index</text>
<text text-anchor="start" x="-77.2725" y="-287.8" font-family="Times,serif" font-size="14.00">destroy</text>
<text text-anchor="start" x="-77.2725" y="-273.8" font-family="Times,serif" font-size="14.00">edit</text>
<text text-anchor="start" x="-77.2725" y="-259.8" font-family="Times,serif" font-size="14.00">create</text>
<text text-anchor="start" x="-77.2725" y="-245.8" font-family="Times,serif" font-size="14.00">new</text>
<text text-anchor="start" x="-77.2725" y="-231.8" font-family="Times,serif" font-size="14.00">show</text>
<text text-anchor="start" x="-77.2725" y="-217.8" font-family="Times,serif" font-size="14.00">update</text>
<polyline fill="none" stroke="black" points="-85.2725,-211 37.2725,-211 "/>
<polyline fill="none" stroke="black" points="-85.2725,-187 37.2725,-187 "/>
<text text-anchor="start" x="-77.2725" y="-171.8" font-family="Times,serif" font-size="14.00">_layout</text>
<text text-anchor="start" x="-77.2725" y="-157.8" font-family="Times,serif" font-size="14.00">product_params</text>
<text text-anchor="start" x="-77.2725" y="-143.8" font-family="Times,serif" font-size="14.00">set_product</text>
</g>
<!-- StoreController -->
<g id="node6" class="node"><title>StoreController</title>
<path fill="none" stroke="black" d="M181.8,-171C181.8,-171 326.2,-171 326.2,-171 332.2,-171 338.2,-177 338.2,-183 338.2,-183 338.2,-263 338.2,-263 338.2,-269 332.2,-275 326.2,-275 326.2,-275 181.8,-275 181.8,-275 175.8,-275 169.8,-269 169.8,-263 169.8,-263 169.8,-183 169.8,-183 169.8,-177 175.8,-171 181.8,-171"/>
<text text-anchor="middle" x="254" y="-259.8" font-family="Times,serif" font-size="14.00">StoreController</text>
<polyline fill="none" stroke="black" points="169.8,-253 338.2,-253 "/>
<text text-anchor="start" x="177.8" y="-237.8" font-family="Times,serif" font-size="14.00">increment_session_counter</text>
<text text-anchor="start" x="177.8" y="-223.8" font-family="Times,serif" font-size="14.00">index</text>
<polyline fill="none" stroke="black" points="169.8,-217 338.2,-217 "/>
<polyline fill="none" stroke="black" points="169.8,-193 338.2,-193 "/>
<text text-anchor="start" x="177.8" y="-177.8" font-family="Times,serif" font-size="14.00">_layout</text>
</g>
</g>
</svg>
