<?xml version="1.0" encoding="UTF-8" standalone="no"?>
<!DOCTYPE svg PUBLIC "-//W3C//DTD SVG 1.1//EN"
 "http://www.w3.org/Graphics/SVG/1.1/DTD/svg11.dtd">
<!-- Generated by graphviz version 2.38.0 (20140413.2041)
 -->
<!-- Title: models_diagram Pages: 1 -->
<svg width="553pt" height="153pt"
 viewBox="0.00 0.00 553.31 153.00" xmlns="http://www.w3.org/2000/svg" xmlns:xlink="http://www.w3.org/1999/xlink">
<g id="graph0" class="graph" transform="scale(1 1) rotate(0) translate(4 149)">
<title>models_diagram</title>
<polygon fill="none" stroke="none" points="-4,4 -4,-149 549.305,-149 549.305,4 -4,4"/>
<!-- _diagram_info -->
<g id="node1" class="node"><title>_diagram_info</title>
<text text-anchor="start" x="8" y="-130.6" font-family="Times,serif" font-size="13.00">Models diagram</text>
<text text-anchor="start" x="8" y="-117.6" font-family="Times,serif" font-size="13.00">Date: Nov 23 2016 &#45; 13:48</text>
<text text-anchor="start" x="8" y="-104.6" font-family="Times,serif" font-size="13.00">Migration version: 20161027184650</text>
<text text-anchor="start" x="8" y="-91.6" font-family="Times,serif" font-size="13.00">Generated by RailRoady 1.5.2</text>
<text text-anchor="start" x="8" y="-78.6" font-family="Times,serif" font-size="13.00">http://railroady.prestonlee.com</text>
</g>
<!-- ApplicationRecord -->
<g id="node2" class="node"><title>ApplicationRecord</title>
<ellipse fill="none" stroke="black" cx="302.688" cy="-108.5" rx="77.2916" ry="18"/>
<text text-anchor="middle" x="302.688" y="-104.3" font-family="Times,serif" font-size="14.00">ApplicationRecord</text>
</g>
<!-- Cart -->
<g id="node3" class="node"><title>Cart</title>
<ellipse fill="none" stroke="black" cx="424.688" cy="-108.5" rx="27" ry="18"/>
<text text-anchor="middle" x="424.688" y="-104.3" font-family="Times,serif" font-size="14.00">Cart</text>
</g>
<!-- LineItem -->
<g id="node4" class="node"><title>LineItem</title>
<ellipse fill="none" stroke="black" cx="465.688" cy="-18" rx="42.5369" ry="18"/>
<text text-anchor="middle" x="465.688" y="-13.8" font-family="Times,serif" font-size="14.00">LineItem</text>
</g>
<!-- Cart&#45;&gt;LineItem -->
<g id="edge1" class="edge"><title>Cart&#45;&gt;LineItem</title>
<path fill="none" stroke="#43af03" d="M435.857,-83.3912C441.361,-71.5108 448.005,-57.1681 453.625,-45.0374"/>
<ellipse fill="none" stroke="#43af03" cx="434.081" cy="-87.2244" rx="4.00002" ry="4.00002"/>
<polygon fill="#43af03" stroke="#43af03" points="453.668,-44.946 461.954,-37.7641 455.769,-40.4092 457.871,-35.8724 457.871,-35.8724 457.871,-35.8724 455.769,-40.4092 453.788,-33.9808 453.668,-44.946 453.668,-44.946"/>
</g>
<!-- Product -->
<g id="node5" class="node"><title>Product</title>
<ellipse fill="none" stroke="black" cx="507.688" cy="-108.5" rx="37.7352" ry="18"/>
<text text-anchor="middle" x="507.688" y="-104.3" font-family="Times,serif" font-size="14.00">Product</text>
</g>
<!-- Product&#45;&gt;LineItem -->
<g id="edge2" class="edge"><title>Product&#45;&gt;LineItem</title>
<path fill="none" stroke="#5bedd8" d="M496.246,-83.3912C490.608,-71.5108 483.801,-57.1681 478.044,-45.0374"/>
<ellipse fill="none" stroke="#5bedd8" cx="498.073" cy="-87.2401" rx="4.00002" ry="4.00002"/>
<polygon fill="#5bedd8" stroke="#5bedd8" points="477.982,-44.9067 477.76,-33.9431 475.839,-40.3896 473.695,-35.8724 473.695,-35.8724 473.695,-35.8724 475.839,-40.3896 469.63,-37.8018 477.982,-44.9067 477.982,-44.9067"/>
</g>
</g>
</svg>
