<?xml version="1.0" encoding="UTF-8" standalone="no"?>
<!DOCTYPE svg PUBLIC "-//W3C//DTD SVG 1.1//EN"
 "http://www.w3.org/Graphics/SVG/1.1/DTD/svg11.dtd">
<!-- Generated by graphviz version 2.38.0 (20140413.2041)
 -->
<!-- Title: models_diagram Pages: 1 -->
<svg width="690pt" height="302pt"
 viewBox="0.00 0.00 690.19 302.00" xmlns="http://www.w3.org/2000/svg" xmlns:xlink="http://www.w3.org/1999/xlink">
<g id="graph0" class="graph" transform="scale(1 1) rotate(0) translate(4 298)">
<title>models_diagram</title>
<polygon fill="none" stroke="none" points="-4,4 -4,-298 686.193,-298 686.193,4 -4,4"/>
<!-- _diagram_info -->
<g id="node1" class="node"><title>_diagram_info</title>
<text text-anchor="start" x="8" y="-251.6" font-family="Times,serif" font-size="13.00">Models diagram</text>
<text text-anchor="start" x="8" y="-238.6" font-family="Times,serif" font-size="13.00">Date: Nov 23 2016 &#45; 13:47</text>
<text text-anchor="start" x="8" y="-225.6" font-family="Times,serif" font-size="13.00">Migration version: 20161027184650</text>
<text text-anchor="start" x="8" y="-212.6" font-family="Times,serif" font-size="13.00">Generated by RailRoady 1.5.2</text>
<text text-anchor="start" x="8" y="-199.6" font-family="Times,serif" font-size="13.00">http://railroady.prestonlee.com</text>
</g>
<!-- ApplicationRecord -->
<g id="node2" class="node"><title>ApplicationRecord</title>
<ellipse fill="none" stroke="black" cx="302.688" cy="-229.5" rx="77.2916" ry="18"/>
<text text-anchor="middle" x="302.688" y="-225.3" font-family="Times,serif" font-size="14.00">ApplicationRecord</text>
</g>
<!-- Cart -->
<g id="node3" class="node"><title>Cart</title>
<path fill="none" stroke="black" d="M410.182,-193.5C410.182,-193.5 519.193,-193.5 519.193,-193.5 525.193,-193.5 531.193,-199.5 531.193,-205.5 531.193,-205.5 531.193,-253.5 531.193,-253.5 531.193,-259.5 525.193,-265.5 519.193,-265.5 519.193,-265.5 410.182,-265.5 410.182,-265.5 404.182,-265.5 398.182,-259.5 398.182,-253.5 398.182,-253.5 398.182,-205.5 398.182,-205.5 398.182,-199.5 404.182,-193.5 410.182,-193.5"/>
<text text-anchor="middle" x="464.688" y="-250.3" font-family="Times,serif" font-size="14.00">Cart</text>
<polyline fill="none" stroke="black" points="398.182,-243.5 531.193,-243.5 "/>
<text text-anchor="start" x="406.182" y="-228.3" font-family="Times,serif" font-size="14.00">id :INTEGER</text>
<text text-anchor="start" x="406.182" y="-214.3" font-family="Times,serif" font-size="14.00">created_at :datetime</text>
<text text-anchor="start" x="406.182" y="-200.3" font-family="Times,serif" font-size="14.00">updated_at :datetime</text>
</g>
<!-- LineItem -->
<g id="node4" class="node"><title>LineItem</title>
<path fill="none" stroke="black" d="M485.182,-0.5C485.182,-0.5 594.193,-0.5 594.193,-0.5 600.193,-0.5 606.193,-6.5 606.193,-12.5 606.193,-12.5 606.193,-116.5 606.193,-116.5 606.193,-122.5 600.193,-128.5 594.193,-128.5 594.193,-128.5 485.182,-128.5 485.182,-128.5 479.182,-128.5 473.182,-122.5 473.182,-116.5 473.182,-116.5 473.182,-12.5 473.182,-12.5 473.182,-6.5 479.182,-0.5 485.182,-0.5"/>
<text text-anchor="middle" x="539.688" y="-113.3" font-family="Times,serif" font-size="14.00">LineItem</text>
<polyline fill="none" stroke="black" points="473.182,-106.5 606.193,-106.5 "/>
<text text-anchor="start" x="481.182" y="-91.3" font-family="Times,serif" font-size="14.00">created_at :datetime</text>
<text text-anchor="start" x="481.182" y="-77.3" font-family="Times,serif" font-size="14.00">product_id :integer</text>
<text text-anchor="start" x="481.182" y="-63.3" font-family="Times,serif" font-size="14.00">cart_id :integer</text>
<text text-anchor="start" x="481.182" y="-49.3" font-family="Times,serif" font-size="14.00">id :INTEGER</text>
<text text-anchor="start" x="481.182" y="-35.3" font-family="Times,serif" font-size="14.00">updated_at :datetime</text>
<text text-anchor="start" x="481.182" y="-21.3" font-family="Times,serif" font-size="14.00">quantity :integer</text>
<text text-anchor="start" x="481.182" y="-7.3" font-family="Times,serif" font-size="14.00">price :decimal(8,2)</text>
</g>
<!-- Cart&#45;&gt;LineItem -->
<g id="edge1" class="edge"><title>Cart&#45;&gt;LineItem</title>
<path fill="none" stroke="#50fa44" d="M484.308,-185.858C491.019,-171.274 498.726,-154.523 506.217,-138.244"/>
<ellipse fill="none" stroke="#50fa44" cx="482.634" cy="-189.498" rx="4.00002" ry="4.00002"/>
<polygon fill="#50fa44" stroke="#50fa44" points="506.413,-137.818 514.681,-130.614 508.503,-133.276 510.593,-128.733 510.593,-128.733 510.593,-128.733 508.503,-133.276 506.505,-126.852 506.413,-137.818 506.413,-137.818"/>
</g>
<!-- Product -->
<g id="node5" class="node"><title>Product</title>
<path fill="none" stroke="black" d="M561.182,-165.5C561.182,-165.5 670.193,-165.5 670.193,-165.5 676.193,-165.5 682.193,-171.5 682.193,-177.5 682.193,-177.5 682.193,-281.5 682.193,-281.5 682.193,-287.5 676.193,-293.5 670.193,-293.5 670.193,-293.5 561.182,-293.5 561.182,-293.5 555.182,-293.5 549.182,-287.5 549.182,-281.5 549.182,-281.5 549.182,-177.5 549.182,-177.5 549.182,-171.5 555.182,-165.5 561.182,-165.5"/>
<text text-anchor="middle" x="615.688" y="-278.3" font-family="Times,serif" font-size="14.00">Product</text>
<polyline fill="none" stroke="black" points="549.182,-271.5 682.193,-271.5 "/>
<text text-anchor="start" x="557.182" y="-256.3" font-family="Times,serif" font-size="14.00">image_url :varchar</text>
<text text-anchor="start" x="557.182" y="-242.3" font-family="Times,serif" font-size="14.00">title :varchar</text>
<text text-anchor="start" x="557.182" y="-228.3" font-family="Times,serif" font-size="14.00">description :text</text>
<text text-anchor="start" x="557.182" y="-214.3" font-family="Times,serif" font-size="14.00">id :INTEGER</text>
<text text-anchor="start" x="557.182" y="-200.3" font-family="Times,serif" font-size="14.00">price :decimal(8,2)</text>
<text text-anchor="start" x="557.182" y="-186.3" font-family="Times,serif" font-size="14.00">created_at :datetime</text>
<text text-anchor="start" x="557.182" y="-172.3" font-family="Times,serif" font-size="14.00">updated_at :datetime</text>
</g>
<!-- Product&#45;&gt;LineItem -->
<g id="edge2" class="edge"><title>Product&#45;&gt;LineItem</title>
<path fill="none" stroke="#026d5f" d="M582.839,-158.049C579.703,-151.321 576.518,-144.491 573.374,-137.747"/>
<ellipse fill="none" stroke="#026d5f" cx="584.614" cy="-161.855" rx="4.00002" ry="4.00002"/>
<polygon fill="#026d5f" stroke="#026d5f" points="573.344,-137.684 573.197,-126.72 571.231,-133.153 569.118,-128.621 569.118,-128.621 569.118,-128.621 571.231,-133.153 565.04,-130.523 573.344,-137.684 573.344,-137.684"/>
</g>
</g>
</svg>
